<?xml version="1.0" encoding="utf-8"?>
<!-- Generator: Adobe Illustrator 28.3.0, SVG Export Plug-In . SVG Version: 6.00 Build 0)  -->
<svg version="1.1" id="Layer_1" xmlns="http://www.w3.org/2000/svg" xmlns:xlink="http://www.w3.org/1999/xlink" x="0px" y="0px"
	 viewBox="0 0 110 135" style="enable-background:new 0 0 110 135;" xml:space="preserve">
<style type="text/css">
	.st0{fill:#FFFFFF;}
</style>
<g>
	<path class="st0" d="M68.3,10c-20.2,0-36.7,14.2-36.7,31.7c0,1.5,0.1,3,0.4,4.4c-15.5,3.7-27,16-27,30.6c0.1,7.8,3.3,15.3,8.9,20.7
		l-2.1,7.7l0,0c-0.3,1.2-0.1,2.4,0.7,3.4c0.7,1,1.9,1.5,3.1,1.6c0.4,0,0.7,0,1.1-0.1l12.5-3.4c4,1.3,8.2,1.9,12.5,1.9
		c20.2,0,36.7-14.2,36.7-31.7l0,0c0-1.5-0.1-3-0.4-4.5c0.9-0.2,1.9-0.5,2.8-0.8l12.5,3.4C93.7,75,94,75,94.4,75
		c1.2,0,2.4-0.6,3.1-1.6s1-2.2,0.7-3.4l-2.1-7.7c5.6-5.4,8.8-12.9,8.9-20.7C105,24.2,88.6,10,68.3,10L68.3,10z M41.7,105
		c-4,0-8.1-0.6-11.9-1.9c-0.3-0.1-0.6-0.1-1,0l-13,3.5c-0.2,0.1-0.4,0-0.6-0.2c-0.2-0.1-0.2-0.4-0.2-0.6l2.4-8.6
		c0.2-0.6,0-1.2-0.5-1.6c-5.4-4.9-8.5-11.7-8.6-19c0-15.6,15-28.3,33.3-28.3S75,61,75,76.7C75,92.3,60,105,41.7,105L41.7,105z
		 M50,37.9c-0.1-5.2,4-9.5,9.1-9.6c3.2,0,6.2,1.8,7.8,4.5c0.3,0.5,0.9,0.8,1.4,0.8c0.6,0,1.1-0.3,1.4-0.8c1.6-2.8,4.6-4.5,7.8-4.5
		c5.2,0.1,9.2,4.4,9.1,9.6c0,10-10.5,16.5-16.1,19.3c-4.8-5.2-10.9-8.9-17.7-10.7C51,44,50,41,50,37.9L50,37.9z M93.1,60.6
		c-0.4,0.4-0.6,1.1-0.5,1.7l2.4,8.6c0.1,0.2,0,0.4-0.2,0.6s-0.4,0.2-0.6,0.2l-13-3.5l0,0c-0.3-0.1-0.6-0.1-1,0c-1,0.3-2,0.6-3,0.8
		c-1-3.3-2.5-6.4-4.5-9.1c6.4-3.3,17.3-10.5,17.3-22c0.1-7-5.5-12.8-12.5-12.9c-3.5,0-6.9,1.6-9.2,4.2C66,26.6,62.7,25,59.1,25
		c-7,0.1-12.6,5.9-12.5,12.9c0,2.6,0.6,5.2,1.8,7.6c-4.3-0.7-8.8-0.7-13.1-0.1c-0.2-1.3-0.3-2.5-0.3-3.8C35,26,50,13.3,68.3,13.3
		c18.4,0,33.3,12.7,33.3,28.3C101.6,48.9,98.5,55.8,93.1,60.6L93.1,60.6z"/>
	<path class="st0" d="M50.9,60c-3.5,0-6.9,1.5-9.2,4.2C39.4,61.5,36,60,32.5,60c-7,0.1-12.6,5.9-12.5,12.9
		c0,15.6,20.2,23.3,21.1,23.6c0.4,0.1,0.8,0.1,1.2,0c0.9-0.3,21.1-8.1,21.1-23.6C63.4,65.9,57.9,60.1,50.9,60L50.9,60z M41.7,93.2
		c-3.2-1.4-18.3-8.4-18.3-20.3c-0.1-5.2,4-9.5,9.1-9.6c3.2,0,6.2,1.8,7.8,4.5c0.3,0.5,0.9,0.8,1.4,0.8c0.6,0,1.1-0.3,1.4-0.8
		c1.6-2.8,4.6-4.5,7.8-4.5c5.2,0.1,9.2,4.4,9.1,9.6C60,84.8,44.9,91.9,41.7,93.2L41.7,93.2z"/>
</g>
</svg>
