<?xml version="1.0" encoding="utf-8"?>
<!-- Generator: Adobe Illustrator 28.3.0, SVG Export Plug-In . SVG Version: 6.00 Build 0)  -->
<svg version="1.1" id="Layer_1" xmlns="http://www.w3.org/2000/svg" xmlns:xlink="http://www.w3.org/1999/xlink" x="0px" y="0px"
	 viewBox="0 0 110 135" style="enable-background:new 0 0 110 135;" xml:space="preserve">
<style type="text/css">
	.st0{fill:#FFFFFF;}
</style>
<g>
	<path class="st0" d="M69.6,40.3L61,39l-3.8-7.7l0,0C56.8,30.5,55.9,30,55,30s-1.8,0.5-2.2,1.3L49,39l-8.6,1.2
		c-0.9,0.1-1.7,0.8-2,1.6c-0.3,0.9,0,1.8,0.6,2.5l6.2,6l-1.5,8.4c-0.2,0.9,0.2,1.8,1,2.4c0.7,0.5,1.7,0.6,2.6,0.2l7.7-4l7.7,4
		c0.8,0.4,1.8,0.4,2.6-0.2c0.7-0.5,1.1-1.5,1-2.4l-1.5-8.4l6.2-6c0.7-0.6,0.9-1.6,0.6-2.5C71.3,41,70.5,40.4,69.6,40.3L69.6,40.3z
		 M61.8,48.6c-0.4,0.4-0.6,0.9-0.5,1.5l1.3,7.5l-6.7-3.5c-0.6-0.3-1.3-0.3-1.8,0l-6.7,3.5l1.3-7.5l0,0c0.1-0.5-0.1-1.1-0.5-1.5
		l-5.5-5.3l7.6-1.1c0.1,0,0.2,0,0.3-0.1c0.4-0.1,0.8-0.4,1-0.8l3.4-6.8l3.4,6.8l0,0c0.2,0.5,0.7,0.8,1.3,0.9l7.6,1.1L61.8,48.6z"/>
	<path class="st0" d="M23.3,61.7h4.8c4,6.4,10.1,11.2,17.3,13.5c-1,4.3-3.1,8.3-6.1,11.5h-1c-4.6,0-8.3,3.7-8.3,8.3v0.2
		c-2.9,0.8-5,3.4-5,6.4v5c0,0.9,0.4,1.7,1,2.4s1.5,1,2.4,1h53.3c0.9,0,1.7-0.4,2.4-1s1-1.5,1-2.4v-5c0-3-2.1-5.7-5-6.4V95
		c0-4.6-3.7-8.3-8.3-8.3h-1c-3-3.2-5.1-7.2-6.1-11.5C71.9,72.9,78,68.1,82,61.7h4.8c6.5,0,12.6-3.5,15.9-9.2s3.3-12.7,0-18.3
		c-3.3-5.7-9.3-9.2-15.9-9.2v-1.9c3.2-0.8,5.4-4,4.9-7.3C91.2,12.5,88.4,10,85,10H25c-3.4,0-6.2,2.5-6.6,5.8s1.7,6.4,4.9,7.3V25
		c-6.5,0-12.6,3.5-15.9,9.2s-3.3,12.7,0,18.3C10.7,58.2,16.8,61.7,23.3,61.7L23.3,61.7z M81.7,101.7v5H28.3v-5
		c0-1.8,1.5-3.3,3.3-3.3h46.7c0.9,0,1.7,0.4,2.4,1S81.7,100.8,81.7,101.7L81.7,101.7z M76.7,95H33.3c0-2.8,2.2-5,5-5h33.3
		C74.4,90,76.7,92.2,76.7,95z M66.3,86.7H43.7c2.3-3.2,4-6.8,4.9-10.6c4.2,0.9,8.5,0.9,12.7,0C62.3,79.9,64,83.5,66.3,86.7
		L66.3,86.7z M55,73.3c-7.5,0-14.7-3-20-8.3s-8.3-12.5-8.3-20V23.3h56.7V45c0,7.5-3,14.7-8.3,20C69.7,70.3,62.5,73.3,55,73.3
		L55,73.3z M24.1,51.7h-0.7c-4.6,0-8.3-3.7-8.3-8.3s3.7-8.3,8.3-8.3v10C23.3,47.2,23.6,49.5,24.1,51.7L24.1,51.7z M86.7,45V35
		c4.6,0,8.3,3.7,8.3,8.3s-3.7,8.3-8.3,8.3H86C86.4,49.5,86.7,47.2,86.7,45L86.7,45z M101.7,43.3c0,4-1.6,7.8-4.4,10.6
		s-6.6,4.4-10.6,4.4h-3c0.5-1.1,1-2.2,1.3-3.3h1.7c6.4,0,11.7-5.2,11.7-11.7c0-6.4-5.2-11.7-11.7-11.7v-3.3c4,0,7.8,1.6,10.6,4.4
		S101.7,39.4,101.7,43.3L101.7,43.3z M21.7,16.7c0-1.8,1.5-3.3,3.3-3.3h60c1.8,0,3.3,1.5,3.3,3.3S86.8,20,85,20H25
		C23.2,20,21.7,18.5,21.7,16.7z M23.3,28.3v3.3l0,0c-6.4,0-11.7,5.2-11.7,11.7c0,6.4,5.2,11.7,11.7,11.7H25c0.4,1.1,0.8,2.2,1.3,3.3
		h-3c-5.4,0-10.3-2.9-13-7.5s-2.7-10.4,0-15S18,28.3,23.3,28.3L23.3,28.3z"/>
</g>
</svg>
