<?xml version="1.0" encoding="utf-8"?>
<!-- Generator: Adobe Illustrator 28.3.0, SVG Export Plug-In . SVG Version: 6.00 Build 0)  -->
<svg version="1.1" id="Layer_1" xmlns="http://www.w3.org/2000/svg" xmlns:xlink="http://www.w3.org/1999/xlink" x="0px" y="0px"
	 viewBox="0 0 110 135" style="enable-background:new 0 0 110 135;" xml:space="preserve">
<style type="text/css">
	.st0{fill:#FFFFFF;}
</style>
<g>
	<path class="st0" d="M100,10H70c-2.8,0-5,2.2-5,5v5H18.3c-2.8,0-5,2.2-5,5v58l-8.2,18C5,101.2,5,101.5,5,101.7v5
		c0,0.9,0.4,1.7,1,2.4s1.5,1,2.4,1h93.3c0.9,0,1.7-0.4,2.4-1s1-1.5,1-2.4v-5c0-0.2-0.1-0.5-0.1-0.7l-8.2-18V43.3h3.3
		c2.8,0,5-2.2,5-5V15C105,12.2,102.8,10,100,10L100,10z M33.5,73.6c1.1,1.9,3.8,4.8,9.8,4.8c6.1,0,8.7-2.9,9.8-4.8l5.5,1.6l0,0
		c2.8,0.8,4.7,3.4,4.7,6.3v0.1h-40v-0.1c0-2.9,1.9-5.5,4.7-6.3L33.5,73.6z M33.6,52.5c-0.1,0-0.2,0-0.3,0c-0.7,0-1.3,0.4-1.6,1.1
		c-0.1,0.1-0.2,0.1-0.3,0.1c-1.1,0-1.4-1.7-1.5-3.2l0,0c0-0.5,0.3-0.9,0.7-0.9c0.3,0,0.6,0.1,0.8,0.4c0.4,0.6,1.2,0.9,2,0.7
		c0.7-0.3,1.2-1,1.1-1.8c-0.2-1.6,0.2-3.2,1.1-4.6c0.7-0.7,1.6-1.1,2.6-1h10c1-0.1,1.9,0.3,2.6,1c0.9,1.3,1.3,3,1.1,4.6
		c-0.1,0.8,0.4,1.5,1.1,1.8c0.7,0.3,1.5,0,2-0.7c0.2-0.3,0.5-0.4,0.8-0.4c0.4,0.1,0.7,0.5,0.7,0.9c0,1.5-0.4,3.2-1.5,3.2l0,0
		c-0.1,0-0.2-0.1-0.3-0.1c-0.3-0.8-1.1-1.2-1.9-1.1c-0.8,0.1-1.4,0.8-1.4,1.6v2.1c0.1,4.5-3.3,8.3-7.7,8.7c-2.3,0.2-4.6-0.6-6.3-2.2
		C36,61.2,35,59,35,56.7v-2.5C35,53.4,34.4,52.7,33.6,52.5L33.6,52.5z M30,44.2v-3.8c0-1.5,0.7-3,1.9-4c0.5-0.4,0.7-1,0.6-1.6
		c-0.2-1.6-0.1-3.1,0.3-4.7c3,1.2,6.2,1.8,9.4,1.6c2.6-0.1,5.1,0.5,7.4,1.7c0.6,0.3,1.1,0.8,1.6,1.3c0.3,0.5,0.8,0.8,1.4,0.8
		c2.4,0.2,4.3,2.3,4.1,4.7V44c0,0.7,0,1.4-0.1,2.1c-0.1,0-0.1,0-0.2-0.1l0,0c-0.3,0-0.7,0-1,0c-0.2-1.5-0.8-3-1.8-4.2
		c-1.3-1.4-3.2-2.2-5.1-2.1h-10c-1.9-0.1-3.8,0.7-5.1,2.1c-1,1.2-1.6,2.6-1.8,4.2c-0.3,0-0.7,0-1,0c-0.1,0-0.2,0-0.2,0.1
		C30,45.6,30,44.9,30,44.2L30,44.2z M39.9,67.8c1.1,0.3,2.3,0.5,3.4,0.5c0.3,0,0.5,0,0.8,0c0.9-0.1,1.7-0.2,2.6-0.5
		c0.9,1.6,2,3.1,3.4,4.3c-0.8,1.1-2.6,2.9-6.8,2.9s-6.1-1.7-6.8-2.9C37.9,70.9,39,69.4,39.9,67.8L39.9,67.8z M93.9,85l6.8,15H74.5
		L72,93.8c-0.5-1.3-1.7-2.1-3.1-2.1H41.1c-1.4,0-2.6,0.8-3.1,2.1l-2.5,6.2H9.3l6.8-15H93.9z M70.9,100H39.1l2-5h27.7L70.9,100z
		 M8.3,106.7v-3.3h93.3v3.3H8.3z M93.3,81.7H66.7v-0.1c0-4.4-2.9-8.3-7.1-9.5l-6.7-2l0,0c-1.3-1-2.4-2.2-3.2-3.7
		c3.1-2.1,5-5.5,5.2-9.3c2.3,0.1,5-1.5,5-6.5c0-0.7-0.1-1.3-0.4-1.9c0.3-1.5,0.4-3,0.4-4.5v-3.8c0.1-3.9-2.7-7.4-6.6-8
		c-0.6-0.7-1.3-1.3-2.1-1.7c-2.8-1.5-5.9-2.3-9.1-2.2c-2.9,0.2-5.7-0.4-8.4-1.5c-0.8-0.4-1.7-0.4-2.5-0.1c-0.8,0.4-1.4,1.1-1.6,2
		c-0.5,1.8-0.6,3.6-0.6,5.5c-1.6,1.6-2.5,3.7-2.5,6v3.8c0,1.5,0.1,3,0.4,4.5c-0.3,0.6-0.4,1.2-0.4,1.9c0.1,4.9,2.7,6.7,5,6.5
		c0.1,3.8,2.1,7.3,5.2,9.3c-0.8,1.4-1.8,2.7-3.2,3.6l-6.7,2c-4.2,1.2-7.1,5.1-7.1,9.5v0.1h-3.3V25c0-0.9,0.7-1.7,1.7-1.7H65v15
		c0,2.8,2.2,5,5,5h3.3v5c0,1.3,0.8,2.5,2,3.1c1.2,0.5,2.5,0.3,3.5-0.5l8.5-7.5h6V81.7z M101.7,38.3L101.7,38.3
		c0,0.4-0.2,0.9-0.5,1.2S100.5,40,100,40H86.7c-0.4,0-0.8,0.1-1.1,0.4l-8.9,7.9v-6.6c0-0.4-0.2-0.9-0.5-1.2C75.9,40.2,75.4,40,75,40
		h-5c-0.9,0-1.7-0.7-1.7-1.7V15c0-0.9,0.7-1.7,1.7-1.7h30c0.4,0,0.9,0.2,1.2,0.5s0.5,0.7,0.5,1.2V38.3z"/>
	<path class="st0" d="M95,20H75c-0.9,0-1.7,0.7-1.7,1.7c0,0.9,0.7,1.7,1.7,1.7h20c0.9,0,1.7-0.7,1.7-1.7S95.9,20,95,20z"/>
	<path class="st0" d="M90,30H75c-0.9,0-1.7,0.7-1.7,1.7c0,0.9,0.7,1.7,1.7,1.7h15c0.9,0,1.7-0.7,1.7-1.7S90.9,30,90,30z"/>
</g>
</svg>
